HIERARCHY
ROOT root
{
	OFFSET	0	13.1	24.9
	CHANNELS 6  Xposition Yposition Zposition Xrotation Yrotation Zrotation
	JOINT spine_1
	{
		OFFSET	0	9.99999	0
		CHANNELS 3  Xrotation Yrotation Zrotation
		JOINT spine_2
		{
			OFFSET	0	112	-10
			CHANNELS 3  Xrotation Yrotation Zrotation
			JOINT spine_3
			{
				OFFSET	0	206.5	19.3
				CHANNELS 3  Xrotation Yrotation Zrotation
				JOINT spine_4
				{
					OFFSET	0	110.4	14.6
					CHANNELS 3  Xrotation Yrotation Zrotation
					JOINT neck_1
					{
						OFFSET	0	71.8	-50.3
						CHANNELS 3  Xrotation Yrotation Zrotation
						JOINT neck_2
						{
							OFFSET	0	86.2	-25.8
							CHANNELS 3  Xrotation Yrotation Zrotation
							JOINT head_ee
							{
								OFFSET	0	179.8	-8.7
								CHANNELS 3  Xrotation Yrotation Zrotation
								End Site
								{
									OFFSET	1	0	0
								}
							}
						}
					}
					JOINT left_clavicle
					{
						OFFSET	-43.2	22.4	-70.8
						CHANNELS 3  Xrotation Yrotation Zrotation
						JOINT left_shoulder
						{
							OFFSET	-93.9	-5.79999	48.7
							CHANNELS 3  Xrotation Yrotation Zrotation
							JOINT left_elbow
							{
								OFFSET	-291.4	-30.8	15.2
								CHANNELS 3  Xrotation Yrotation Zrotation
								JOINT left_lowarm_twist
								{
									OFFSET	-110.7	-3.89999	13.6
									CHANNELS 3  Xrotation Yrotation Zrotation
									JOINT left_hand
									{
										OFFSET	-110.7	-3.89999	13.6
										CHANNELS 3  Xrotation Yrotation Zrotation
										JOINT left_ee
										{
											OFFSET	-80.8	-5.10001	12.1
											CHANNELS 3  Xrotation Yrotation Zrotation
											End Site
											{
												OFFSET	1	0	0
											}
										}
									}
								}
							}
						}
					}
					JOINT right_clavicle
					{
						OFFSET	43.2	22.4	-70.8
						CHANNELS 3  Xrotation Yrotation Zrotation
						JOINT right_shoulder
						{
							OFFSET	93.9	-5.79999	48.7
							CHANNELS 3  Xrotation Yrotation Zrotation
							JOINT right_elbow
							{
								OFFSET	291.4	-30.8	15.2
								CHANNELS 3  Xrotation Yrotation Zrotation
								JOINT right_lowarm_twist
								{
									OFFSET	110.7	-3.89999	13.6
									CHANNELS 3  Xrotation Yrotation Zrotation
									JOINT right_hand
									{
										OFFSET	110.7	-3.89999	13.6
										CHANNELS 3  Xrotation Yrotation Zrotation
										JOINT right_ee
										{
											OFFSET	80.8	-5.10001	12.1
											CHANNELS 3  Xrotation Yrotation Zrotation
											End Site
											{
												OFFSET	1	0	0
											}
										}
									}
								}
							}
						}
					}
				}
			}
		}
	}
	JOINT left_hip
	{
		OFFSET	-82.8	-127.5	0.300001
		CHANNELS 3  Xrotation Yrotation Zrotation
		JOINT left_knee
		{
			OFFSET	-28.2	-396.7	2.2
			CHANNELS 3  Xrotation Yrotation Zrotation
			JOINT left_ankle
			{
				OFFSET	-11.7	-411.3	35.4
				CHANNELS 3  Xrotation Yrotation Zrotation
				JOINT left_toes
				{
					OFFSET	0	-60	-88.6
					CHANNELS 3  Xrotation Yrotation Zrotation
					JOINT left_foot_ee
					{
						OFFSET	-22.5	-16.5	-42.2
						CHANNELS 3  Xrotation Yrotation Zrotation
						End Site
						{
							OFFSET	1	0	0
						}
					}
				}
			}
		}
	}
	JOINT right_hip
	{
		OFFSET	82.8	-127.5	0.300001
		CHANNELS 3  Xrotation Yrotation Zrotation
		JOINT right_knee
		{
			OFFSET	28.2	-396.7	2.2
			CHANNELS 3  Xrotation Yrotation Zrotation
			JOINT right_ankle
			{
				OFFSET	11.7	-411.3	35.4
				CHANNELS 3  Xrotation Yrotation Zrotation
				JOINT right_toes
				{
					OFFSET	0	-60	-88.6
					CHANNELS 3  Xrotation Yrotation Zrotation
					JOINT right_foot_ee
					{
						OFFSET	22.5	-16.5	-42.2
						CHANNELS 3  Xrotation Yrotation Zrotation
						End Site
						{
							OFFSET	1	0	0
						}
					}
				}
			}
		}
	}
}
MOTION
Frames: 10
Frame Time: 0.02
1041.4 574.639 -1682.42 -8.35943977482 64.0235875619 6.7309864637 2.95669 0.124733 1.13775 2.95741 0.0520874 1.14338 2.95824 -0.130894 1.13705 2.95644 0.0503135 1.14346 -15.8462 6.6786 -0.398259 -16.0107 13.0272 1.95713 -0.0 0.0 -0.0 -1.0718 7.59015 -1.0062 -27.2866 -32.2477 68.5231 0.479576 -13.3641 0.0561853 -30.8297 -2.03281 3.32735 4.12328 9.85703 32.4141 -0.0 0.0 -0.0 10.2045 12.3883 -20.2371 -13.3459 21.2337 -53.2964 2.09013 45.9905 -0.887083 -4.97898 0.201814 -0.60341 0.172053 -15.8678 -7.54854 0.0 0.0 0.0 26.7236 -5.04603 -0.2128 -5.55765 0.1886 0.831751 28.8803 -5.6473 -3.84952 -12.374 0.0 0.0 -0.0 0.0 -0.0 -5.50495 -3.415 -2.68156 -3.59666 -0.131287 -0.536272 28.6125 3.32371 3.79083 5.2964 -0.0 -0.0 0.0 0.0 0.0 
1041.4 574.639 -1682.42 -8.58791034484 64.7586260824 6.98434037131 2.95669 0.124733 1.13775 2.95741 0.0520874 1.14338 2.95824 -0.130894 1.13705 2.95644 0.0503135 1.14346 -15.8462 6.6786 -0.398259 -16.0107 13.0272 1.95713 -0.0 0.0 -0.0 -1.0718 7.59015 -1.0062 -27.2866 -32.2477 68.5231 0.479576 -13.3641 0.0561853 -30.8297 -2.03281 3.32735 4.12328 9.85703 32.4141 -0.0 0.0 -0.0 10.2045 12.3883 -20.2371 -13.3459 21.2337 -53.2964 2.09013 45.9905 -0.887083 -4.97898 0.201814 -0.60341 0.172053 -15.8678 -7.54854 0.0 0.0 0.0 26.7236 -5.04603 -0.2128 -5.55765 0.1886 0.831751 28.8803 -5.6473 -3.84952 -12.374 0.0 0.0 -0.0 0.0 -0.0 -5.50495 -3.415 -2.68156 -3.59666 -0.131287 -0.536272 28.6125 3.32371 3.79083 5.2964 -0.0 -0.0 0.0 0.0 0.0 
1041.4 574.639 -1682.42 -8.91600925179 65.7411109586 7.3456127057 2.95669 0.124733 1.13775 2.95741 0.0520874 1.14338 2.95824 -0.130894 1.13705 2.95644 0.0503135 1.14346 -15.8462 6.6786 -0.398259 -16.0107 13.0272 1.95713 -0.0 0.0 -0.0 -1.0718 7.59015 -1.0062 -27.2866 -32.2477 68.5231 0.479576 -13.3641 0.0561853 -30.8297 -2.03281 3.32735 4.12328 9.85703 32.4141 -0.0 0.0 -0.0 10.2045 12.3883 -20.2371 -13.3459 21.2337 -53.2964 2.09013 45.9905 -0.887083 -4.97898 0.201814 -0.60341 0.172053 -15.8678 -7.54854 0.0 0.0 0.0 26.7236 -5.04603 -0.2128 -5.55765 0.1886 0.831751 28.8803 -5.6473 -3.84952 -12.374 0.0 0.0 -0.0 0.0 -0.0 -5.50495 -3.415 -2.68156 -3.59666 -0.131287 -0.536272 28.6125 3.32371 3.79083 5.2964 -0.0 -0.0 0.0 0.0 0.0 
1041.4 574.639 -1682.42 -9.07209053974 66.1809623162 7.51651545046 2.95669 0.124733 1.13775 2.95741 0.0520874 1.14338 2.95824 -0.130894 1.13705 2.95644 0.0503135 1.14346 -15.8462 6.6786 -0.398259 -16.0107 13.0272 1.95713 -0.0 0.0 -0.0 -1.0718 7.59015 -1.0062 -27.2866 -32.2477 68.5231 0.479576 -13.3641 0.0561853 -30.8297 -2.03281 3.32735 4.12328 9.85703 32.4141 -0.0 0.0 -0.0 10.2045 12.3883 -20.2371 -13.3459 21.2337 -53.2964 2.09013 45.9905 -0.887083 -4.97898 0.201814 -0.60341 0.172053 -15.8678 -7.54854 0.0 0.0 0.0 26.7236 -5.04603 -0.2128 -5.55765 0.1886 0.831751 28.8803 -5.6473 -3.84952 -12.374 0.0 0.0 -0.0 0.0 -0.0 -5.50495 -3.415 -2.68156 -3.59666 -0.131287 -0.536272 28.6125 3.32371 3.79083 5.2964 -0.0 -0.0 0.0 0.0 0.0 
1041.4 574.639 -1682.42 -9.38841199625 67.0231977582 7.86116944008 2.95669 0.124733 1.13775 2.95741 0.0520874 1.14338 2.95824 -0.130894 1.13705 2.95644 0.0503135 1.14346 -15.8462 6.6786 -0.398259 -16.0107 13.0272 1.95713 -0.0 0.0 -0.0 -1.0718 7.59015 -1.0062 -27.2866 -32.2477 68.5231 0.479576 -13.3641 0.0561853 -30.8297 -2.03281 3.32735 4.12328 9.85703 32.4141 -0.0 0.0 -0.0 10.2045 12.3883 -20.2371 -13.3459 21.2337 -53.2964 2.09013 45.9905 -0.887083 -4.97898 0.201814 -0.60341 0.172053 -15.8678 -7.54854 0.0 0.0 0.0 26.7236 -5.04603 -0.2128 -5.55765 0.1886 0.831751 28.8803 -5.6473 -3.84952 -12.374 0.0 0.0 -0.0 0.0 -0.0 -5.50495 -3.415 -2.68156 -3.59666 -0.131287 -0.536272 28.6125 3.32371 3.79083 5.2964 -0.0 -0.0 0.0 0.0 0.0 
1041.4 574.639 -1682.42 -9.67526181125 67.7350238773 8.17191961278 2.95669 0.124733 1.13775 2.95741 0.0520874 1.14338 2.95824 -0.130894 1.13705 2.95644 0.0503135 1.14346 -15.8462 6.6786 -0.398259 -16.0107 13.0272 1.95713 -0.0 0.0 -0.0 -1.0718 7.59015 -1.0062 -27.2866 -32.2477 68.5231 0.479576 -13.3641 0.0561853 -30.8297 -2.03281 3.32735 4.12328 9.85703 32.4141 -0.0 0.0 -0.0 10.2045 12.3883 -20.2371 -13.3459 21.2337 -53.2964 2.09013 45.9905 -0.887083 -4.97898 0.201814 -0.60341 0.172053 -15.8678 -7.54854 0.0 0.0 0.0 26.7236 -5.04603 -0.2128 -5.55765 0.1886 0.831751 28.8803 -5.6473 -3.84952 -12.374 0.0 0.0 -0.0 0.0 -0.0 -5.50495 -3.415 -2.68156 -3.59666 -0.131287 -0.536272 28.6125 3.32371 3.79083 5.2964 -0.0 -0.0 0.0 0.0 0.0 
1041.4 574.639 -1682.42 -10.1383500078 68.7921193304 8.67043337944 2.95669 0.124733 1.13775 2.95741 0.0520874 1.14338 2.95824 -0.130894 1.13705 2.95644 0.0503135 1.14346 -15.8462 6.6786 -0.398259 -16.0107 13.0272 1.95713 -0.0 0.0 -0.0 -1.0718 7.59015 -1.0062 -27.2866 -32.2477 68.5231 0.479576 -13.3641 0.0561853 -30.8297 -2.03281 3.32735 4.12328 9.85703 32.4141 -0.0 0.0 -0.0 10.2045 12.3883 -20.2371 -13.3459 21.2337 -53.2964 2.09013 45.9905 -0.887083 -4.97898 0.201814 -0.60341 0.172053 -15.8678 -7.54854 0.0 0.0 0.0 26.7236 -5.04603 -0.2128 -5.55765 0.1886 0.831751 28.8803 -5.6473 -3.84952 -12.374 0.0 0.0 -0.0 0.0 -0.0 -5.50495 -3.415 -2.68156 -3.59666 -0.131287 -0.536272 28.6125 3.32371 3.79083 5.2964 -0.0 -0.0 0.0 0.0 0.0 
1041.4 574.639 -1682.42 -10.7691407912 70.0748574068 9.34412122725 2.95669 0.124733 1.13775 2.95741 0.0520874 1.14338 2.95824 -0.130894 1.13705 2.95644 0.0503135 1.14346 -15.8462 6.6786 -0.398259 -16.0107 13.0272 1.95713 -0.0 0.0 -0.0 -1.0718 7.59015 -1.0062 -27.2866 -32.2477 68.5231 0.479576 -13.3641 0.0561853 -30.8297 -2.03281 3.32735 4.12328 9.85703 32.4141 -0.0 0.0 -0.0 10.2045 12.3883 -20.2371 -13.3459 21.2337 -53.2964 2.09013 45.9905 -0.887083 -4.97898 0.201814 -0.60341 0.172053 -15.8678 -7.54854 0.0 0.0 0.0 26.7236 -5.04603 -0.2128 -5.55765 0.1886 0.831751 28.8803 -5.6473 -3.84952 -12.374 0.0 0.0 -0.0 0.0 -0.0 -5.50495 -3.415 -2.68156 -3.59666 -0.131287 -0.536272 28.6125 3.32371 3.79083 5.2964 -0.0 -0.0 0.0 0.0 0.0 
983.300790956 580.667 -1678.77366589 -10.0432577993 72.7052558474 8.50702698187 3.12379 -0.187701 1.03868 3.12436 -0.253411 1.02463 3.11959 -0.410853 0.972265 3.11836 -0.252155 1.02494 -14.5923 7.49859 -1.75242 -14.7816 15.3761 0.807898 -0.0 0.0 -0.0 -0.631451 5.55188 -0.490642 -25.2749 -33.2839 68.6458 0.524981 -14.5776 0.0671479 -30.7675 -2.02699 3.32188 4.1795 9.35924 32.6904 -0.0 0.0 -0.0 10.1813 14.2008 -20.1281 -18.9502 17.5074 -54.7025 1.85186 42.5277 -0.720715 -4.29216 0.170862 -0.521234 0.18645 -14.7705 -7.21578 0.0 0.0 0.0 24.6551 -5.73998 0.864691 -5.22337 0.179546 0.78125 30.5236 -8.6949 -4.0778 -11.8551 0.0 0.0 -0.0 0.0 -0.0 -7.13129 -5.47617 -3.1432 -3.95389 -0.142481 -0.589954 32.5907 3.70825 4.21679 5.4875 -0.0 -0.0 0.0 0.0 0.0 
948.550520445 588.317 -1677.77450031 -10.3813617439 75.0487806459 9.20627756713 3.21934 -0.15686 0.912706 3.21978 -0.214618 0.900877 3.21622 -0.351689 0.856715 3.21526 -0.211979 0.901501 -12.9362 7.6174 -2.4547 -13.0846 16.0248 -0.0556647 -0.0 0.0 -0.0 -0.380859 3.89268 -0.243558 -23.0308 -33.6234 68.4656 0.603731 -16.6505 0.0883475 -29.8127 -1.93851 3.23725 4.1346 8.79412 32.1558 -0.0 0.0 -0.0 10.4108 14.4399 -20.6302 -22.8272 15.3588 -56.449 1.38956 34.5396 -0.432016 -4.41905 0.176506 -0.536444 0.228146 -15.0489 -7.58391 0.0 0.0 0.0 21.4902 -6.47964 1.65467 -7.10363 0.226631 1.06595 30.3004 -8.83807 -4.05644 -12.0117 0.0 0.0 -0.0 0.0 -0.0 -8.3193 -5.39891 -3.37555 -5.96423 -0.199214 -0.893244 35.1777 3.39086 4.46958 6.08177 -0.0 -0.0 0.0 0.0 0.0 
